static_grf.mot
version=1
nRows=12
nColumns 19
inDegrees=yes
endheader
time	1_ground_force_vx	1_ground_force_vy	1_ground_force_vz	1_ground_force_px	1_ground_force_py	1_ground_force_pz	1_ground_torque_x	1_ground_torque_y	1_ground_torque_z	2_ground_force_vx	2_ground_force_vy	2_ground_force_vz	2_ground_force_px	2_ground_force_py	2_ground_force_pz	2_ground_torque_x	2_ground_torque_y	2_ground_torque_z
            0.485000	            1.713945	          276.568390	           -8.265031	           -0.311785	            0.006398	           -0.449570	            0.002557	            0.412645	           -0.012332	           -4.814385	          270.649200	           10.775484	           -0.287305	            0.005318	           -0.661581	            0.010795	           -0.606857	           -0.024161
            0.485500	            1.805355	          276.208466	           -8.404372	           -0.311871	            0.006400	           -0.449844	            0.002832	            0.433350	           -0.013186	           -4.725358	          271.938752	           10.733116	           -0.287241	            0.005321	           -0.662531	            0.012145	           -0.698933	           -0.027586
            0.486000	            1.896765	          275.848542	           -8.543713	           -0.312160	            0.006400	           -0.450051	            0.003135	            0.455982	           -0.014123	           -4.630268	          271.570246	           10.872546	           -0.287733	            0.005318	           -0.662024	            0.011568	           -0.678472	           -0.027163
            0.486500	            1.896975	          276.569015	           -8.403054	           -0.311745	            0.006399	           -0.449656	            0.003465	            0.505127	           -0.015347	           -4.580115	          270.649879	           10.822313	           -0.287854	            0.005316	           -0.661580	            0.011247	           -0.664597	           -0.026575
            0.487000	            1.850629	          276.209458	           -8.633765	           -0.311992	            0.006399	           -0.449742	            0.003214	            0.479745	           -0.014996	           -4.720768	          270.650208	           10.587732	           -0.287929	            0.005314	           -0.661302	            0.011102	           -0.636508	           -0.024900
            0.487500	            1.622438	          276.207644	           -8.220493	           -0.311836	            0.006398	           -0.449478	            0.002300	            0.391524	           -0.011653	           -4.487806	          271.019001	           10.682803	           -0.287359	            0.005318	           -0.661814	            0.011389	           -0.687810	           -0.027112
            0.488000	            1.942282	          276.389772	           -8.633220	           -0.311982	            0.006400	           -0.449951	            0.004084	            0.581140	           -0.018152	           -4.536027	          271.387448	           10.590281	           -0.287565	            0.005320	           -0.662393	            0.011343	           -0.678625	           -0.026482
            0.488500	            1.851003	          276.028633	           -8.496970	           -0.311979	            0.006400	           -0.449917	            0.003084	            0.459909	           -0.014157	           -4.912176	          271.754604	           10.544826	           -0.287364	            0.005319	           -0.662074	            0.010490	           -0.580327	           -0.022518
            0.489000	            1.805370	          276.749097	           -8.356197	           -0.311921	            0.006399	           -0.449659	            0.002865	            0.439134	           -0.013259	           -4.583500	          271.571085	           10.684814	           -0.286902	            0.005320	           -0.661817	            0.011422	           -0.676732	           -0.026626
            0.489500	            1.713800	          275.487385	           -8.407236	           -0.311887	            0.006403	           -0.450764	            0.002711	            0.435739	           -0.013298	           -4.489821	          271.571590	           10.637846	           -0.287387	            0.005318	           -0.661886	            0.011337	           -0.685747	           -0.026862
            0.490000	            1.989493	          275.125924	           -8.180185	           -0.312286	            0.006402	           -0.450504	            0.003367	            0.465620	           -0.013844	           -4.489882	          271.572092	           10.497061	           -0.287184	            0.005320	           -0.662165	            0.010881	           -0.658123	           -0.025438
            0.490500	            1.805600	          275.487207	           -8.361608	           -0.312215	            0.006402	           -0.450415	            0.002785	            0.424856	           -0.012895	           -4.768138	          270.833008	           10.916906	           -0.287680	            0.005316	           -0.661627	            0.011198	           -0.636026	           -0.025637
